<svg id="Layer_1" data-name="Layer 1" xmlns="http://www.w3.org/2000/svg" viewBox="0 0 40 40"><defs><style>.cls-1{fill:#222B59;}</style></defs><title>icon_tg</title><path class="cls-1" d="M17.35107,22.68286a.49982.49982,0,0,1,.11377-.37109l9.04932-10.83789-16.624,8.6582,5.085,1.30078a.50081.50081,0,0,1,.36133.36426l1.31055,5.29,3.00684-2.38281L17.5376,23.02368A.50137.50137,0,0,1,17.35107,22.68286Z"/><polygon class="cls-1" points="26.36 28.754 27.864 11.417 18.561 22.559 26.36 28.754"/><path class="cls-1" d="M20,0A20,20,0,1,0,40,20,20,20,0,0,0,20,0Zm9,9.86255a.5434.5434,0,0,1-.00244.06348l-1.72168,19.8418a.5.5,0,0,1-.80908.34863L20.458,25.343l-3.79883,3.01074a.49924.49924,0,0,1-.7959-.27148L14.4375,22.32739,8.376,20.77661a.5.5,0,0,1-.10693-.92773L28.25879,9.43774a.50656.50656,0,0,1,.15234-.05371h.00244a.4392.4392,0,0,1,.06152-.00684h.00244l.02295-.001a.49388.49388,0,0,1,.30273.10254h.001c.01318.01074.02637.02148.03857.0332l.001.001a.49828.49828,0,0,1,.14844.27637l.00049.002A.535.535,0,0,1,29,9.86157Z"/></svg>