<svg id="Layer_1" data-name="Layer 1" xmlns="http://www.w3.org/2000/svg" viewBox="0 0 40 40"><defs><style>.cls-1{fill:#222B59;}</style></defs><title>icon_vk</title><path class="cls-1" d="M29.438,24.80493a.82012.82012,0,0,0-.03809-.07324A9.69767,9.69767,0,0,0,27.582,22.61353l-.1416-.125a11.97936,11.97936,0,0,1-.88721-.90137,1.3115,1.3115,0,0,1-.21973-1.34863,7.02982,7.02982,0,0,1,1.00488-1.48145q.42261-.54492.6709-.877c1.30029-1.72852,1.47363-2.35645,1.49023-2.54a.57692.57692,0,0,0-.05518-.01758,1.1444,1.1444,0,0,0-.46143-.00977l-3.14209.02539-.08252-.02539-.064.04785-.01514-.0625-.41357-.0752.46631.18066a17.53007,17.53007,0,0,1-1.14746,2.41211c-.26611.44629-.50732.82813-.72754,1.15137a5.84154,5.84154,0,0,1-.59668.76465,4.30712,4.30712,0,0,1-.44922.40723.86449.86449,0,0,1-.68262.20605l-.34082-.10937a1.1863,1.1863,0,0,1-.40234-.43652,1.64175,1.64175,0,0,1-.17725-.582c-.02295-.18262-.03613-.33887-.04-.4707-.00342-.125-.002-.30273.00586-.53027.00635-.207.00977-.34766.00977-.4209,0-.26855.00537-.56152.01611-.876l.02588-.73633c.00684-.1748.00977-.35937.00977-.55371a1.95072,1.95072,0,0,0-.02539-.37109,1.10684,1.10684,0,0,0-.07617-.23145.48081.48081,0,0,0-.229-.11133,6.51661,6.51661,0,0,0-1.28857-.11914,10.03328,10.03328,0,0,0-2.00684.11914,1.43491,1.43491,0,0,1,.36426.34473l.10645.19727a2.34479,2.34479,0,0,1,.188.59863,5.43616,5.43616,0,0,1,.104.83887,8.60586,8.60586,0,0,1-.002,1.375q-.0542.55957-.10254.87207a2.16538,2.16538,0,0,1-.1875.63672,2.28491,2.28491,0,0,1-.17578.30957l-.06982.09082-.15479.10352a1.05678,1.05678,0,0,1-1.147-.13184,2.90724,2.90724,0,0,1-.52-.48047,5.754,5.754,0,0,1-.55518-.78027q-.293-.47754-.60742-1.127l-.1543-.2793c-.10889-.2041-.25488-.49219-.439-.87207q-.27832-.57275-.49316-1.10937a.20549.20549,0,0,0-.07129-.10937l-.123-.06641a.625.625,0,0,0-.13623-.03906l-2.7627.0293a.91936.91936,0,0,0-.14795.00977l.0083.02344c.40039.93945.85107,1.87793,1.33105,2.76953.48242.89746.9043,1.625,1.25391,2.16211.35205.541.71631,1.06055,1.083,1.542.36426.47852.60449.78613.72266.91992.11279.12988.2002.22559.26367.28906l.25293.24316a5.87658,5.87658,0,0,0,.68018.55371q.46509.334,1.02979.65918a5.33412,5.33412,0,0,0,1.25244.50293,4.24032,4.24032,0,0,0,1.35938.15527l1.22607-.001a.33917.33917,0,0,0,.18994-.07324,1.144,1.144,0,0,0,.01807-.18652,3.92277,3.92277,0,0,1,.07861-.91211A2.60893,2.60893,0,0,1,21.49854,23.3a1.85358,1.85358,0,0,1,.31152-.42383,1.20331,1.20331,0,0,1,.30615-.24414l.15186-.06445a.91415.91415,0,0,1,.28906-.04687,1.28615,1.28615,0,0,1,.74658.27832,3.9428,3.9428,0,0,1,.728.69141q.28857.34863.69434.78418a4.32877,4.32877,0,0,0,.64893.59668l.1792.10645a1.989,1.989,0,0,0,.43311.18066.67028.67028,0,0,0,.33105.04l2.76123-.05176a.73935.73935,0,0,0,.36572-.06055c.0376,0,.04443-.041.02979-.12207A1.155,1.155,0,0,0,29.438,24.80493Z"/><path class="cls-1" d="M20,0A20,20,0,1,0,40,20,20,20,0,0,0,20,0ZM30.44482,25.35962a.989.989,0,0,1-.48877.58691,1.66992,1.66992,0,0,1-.86865.2002l-2.6582.041a.72143.72143,0,0,1-.18555.02051,1.9277,1.9277,0,0,1-.5542-.09473,2.93852,2.93852,0,0,1-.65088-.2793l-.20752-.124a5.20745,5.20745,0,0,1-.8374-.75391c-.28516-.30762-.5293-.583-.73242-.8291a2.95305,2.95305,0,0,0-.543-.51758.52912.52912,0,0,0-.15479-.085c.00537.00684-.01855.03027-.04736.05957a.85141.85141,0,0,0-.13916.19336,1.68168,1.68168,0,0,0-.12744.4082,2.96623,2.96623,0,0,0-.05566.6875,1.58059,1.58059,0,0,1-.05518.43359,1.12127,1.12127,0,0,1-.146.33789l-.09229.11719a1.31406,1.31406,0,0,1-.87256.38184l-1.23926.002a5.13344,5.13344,0,0,1-1.65283-.18945,6.34,6.34,0,0,1-1.48633-.60059,12.94019,12.94019,0,0,1-1.11523-.71582,6.45271,6.45271,0,0,1-.7959-.65039l-.25293-.24316c-.08252-.082-.18555-.19336-.31689-.34473-.124-.1416-.37988-.46484-.76562-.97266-.38135-.502-.75977-1.041-1.125-1.60254-.36475-.56055-.80078-1.31152-1.29687-2.23242-.49414-.91895-.958-1.88574-1.37842-2.873A1.351,1.351,0,0,1,9.5,15.24341a.81614.81614,0,0,1,.09912-.41895l.05908-.08984a1.19078,1.19078,0,0,1,1.0083-.418l2.84912-.02148a1.64791,1.64791,0,0,1,.43359.10547,1.3628,1.3628,0,0,1,.74609.73828c.13135.32813.28613.67676.46143,1.03613q.26514.54785.418.83105l.16357.29785c.20508.42285.39209.76953.57129,1.06348a4.93679,4.93679,0,0,0,.45459.64355,2.01511,2.01511,0,0,0,.3418.32031c.0249.0166.04443.0293.06055.03809l.019-.03809a1.19381,1.19381,0,0,0,.09375-.34277c.03027-.19531.06152-.4668.0957-.81543a7.65316,7.65316,0,0,0-.00146-1.21875,4.42219,4.42219,0,0,0-.084-.69043,1.63156,1.63156,0,0,0-.09619-.34473l-.07031-.13965a1.0638,1.0638,0,0,0-.51074-.17578l-.28955-.043-.15771-.30664a.73116.73116,0,0,1,.18555-.71289,1.94047,1.94047,0,0,1,.55127-.43848,6.26294,6.26294,0,0,1,2.72559-.30664,7.37232,7.37232,0,0,1,1.51025.14746,1.7502,1.7502,0,0,1,.50391.2041,1.05551,1.05551,0,0,1,.4043.46875,2.093,2.093,0,0,1,.14307.4375,2.87653,2.87653,0,0,1,.04639.5752c0,.208-.00293.40625-.01074.59277l-.02588.73047q-.01465.4541-.01514.84277c0,.0791-.00342.22949-.01074.45313q-.01025.30469-.00488.46875c.00293.10449.01416.22949.03223.374a.71708.71708,0,0,0,.05322.21,3.16792,3.16792,0,0,0,.291-.26758,4.84241,4.84241,0,0,0,.48584-.62988q.31494-.46289.69189-1.09375a16.62271,16.62271,0,0,0,1.07715-2.26758,1.23631,1.23631,0,0,1,.18018-.31348.91245.91245,0,0,1,.25049-.22754l.37256-.14551a.8998.8998,0,0,1,.37451-.01855l2.93994-.02051a1.96685,1.96685,0,0,1,.813.04688,1.00383,1.00383,0,0,1,.59619.375l.07422.123c.20557.542.14014,1.31738-1.59131,3.61914-.167.22266-.394.52051-.68115.89063a7.13966,7.13966,0,0,0-.86572,1.23828c-.03613.08789-.05908.18457.07471.35645.04834.05957.20313.23145.64893.66016H27.999l.15869.1543a10.86388,10.86388,0,0,1,2.10547,2.44629,1.77429,1.77429,0,0,1,.083.16016l.00146.00293a1.71105,1.71105,0,0,1,.11084.3916A1.31245,1.31245,0,0,1,30.44482,25.35962Z"/></svg>