<svg id="Layer_1" data-name="Layer 1" xmlns="http://www.w3.org/2000/svg" viewBox="0 0 40 40"><defs><style>.cls-1{fill:#222B59;}</style></defs><title>icon_insta</title><path class="cls-1" d="M25.0002,10.50024h-10a4.50492,4.50492,0,0,0-4.5,4.5v10a4.50492,4.50492,0,0,0,4.5,4.5h10a4.50492,4.50492,0,0,0,4.5-4.5v-10A4.50492,4.50492,0,0,0,25.0002,10.50024Zm-5,15a5.5,5.5,0,1,1,5.5-5.5A5.50654,5.50654,0,0,1,20.0002,25.50024ZM26.00093,15a1.00095,1.00095,0,1,1,1.00092-1.00092A1.00091,1.00091,0,0,1,26.00093,15Z"/><circle class="cls-1" cx="20.0002" cy="20.00024" r="4.5"/><path class="cls-1" d="M20,0A20,20,0,1,0,40,20,20,20,0,0,0,20,0ZM30.5002,25.00024a5.50654,5.50654,0,0,1-5.5,5.5h-10a5.50654,5.50654,0,0,1-5.5-5.5v-10a5.50654,5.50654,0,0,1,5.5-5.5h10a5.50654,5.50654,0,0,1,5.5,5.5Z"/></svg>