<svg width="22" height="34" viewBox="0 0 22 34" fill="none" xmlns="http://www.w3.org/2000/svg">
<g clip-path="url(#clip0)">
<path d="M11 0C4.92548 0 0 4.7124 0 10.5241C0 14.9827 6.47372 27.5196 9.48848 33.1171C10.1222 34.2947 11.8778 34.2947 12.5115 33.1171C15.5263 27.5196 22 14.9827 22 10.5241C22 4.7124 17.0757 0 11 0ZM11 16.3823C7.36808 16.3823 4.4244 13.566 4.4244 10.0912C4.4244 6.6164 7.36808 3.79893 11 3.79893C14.6319 3.79893 17.5756 6.61527 17.5756 10.0901C17.5756 13.5649 14.6319 16.3823 11 16.3823Z" fill="#222B59"/>
<path d="M11.7037 14.1274H10.2976C9.90909 14.1274 9.59399 13.826 9.59399 13.4542V6.72789C9.59399 6.35615 9.90909 6.05469 10.2976 6.05469H11.7037C12.0923 6.05469 12.4074 6.35615 12.4074 6.72789V13.4542C12.4062 13.826 12.0911 14.1274 11.7037 14.1274Z" fill="#222B59"/>
<path d="M15.2183 9.41832V10.7636C15.2183 11.1353 14.9032 11.4368 14.5146 11.4368H7.48416C7.09562 11.4368 6.78052 11.1353 6.78052 10.7636V9.41832C6.78052 9.04658 7.09562 8.74512 7.48416 8.74512H14.5146C14.9044 8.74625 15.2183 9.04658 15.2183 9.41832Z" fill="#222B59"/>
</g>
<defs>
<clipPath id="clip0">
<rect width="22" height="34" fill="white"/>
</clipPath>
</defs>
</svg>
