<svg width="31" height="25" viewBox="0 0 31 25" fill="none" xmlns="http://www.w3.org/2000/svg">
<path d="M1.28917 5.56926C0.893776 5.18368 0.893776 4.55851 1.28917 4.17292L4.85238 0.698115C5.24778 0.312527 5.88885 0.312526 6.28424 0.698115L8.06585 2.43552L3.07078 7.30667L1.28917 5.56926Z" fill="#222B59"/>
<path d="M27.3737 21.5714C27.7691 21.9569 27.7691 22.5821 27.3737 22.9677L26.308 24.0069C25.9126 24.3925 25.2715 24.3925 24.8761 24.0069L23.0945 22.2695L25.5921 19.834L27.3737 21.5714Z" fill="#222B59"/>
<path d="M24.8622 0.8886C25.2576 0.503011 25.8987 0.503011 26.2941 0.8886L29.8573 4.36341C30.2527 4.749 30.2527 5.37416 29.8573 5.75975L28.0757 7.49715L23.0806 2.626L24.8622 0.8886Z" fill="#222B59"/>
<path d="M6.28429 23.8301C5.88889 24.2157 5.24783 24.2157 4.85243 23.8302L3.78676 22.7909C3.39136 22.4053 3.39136 21.7802 3.78676 21.3946L5.56836 19.6572L8.06589 22.0927L6.28429 23.8301Z" fill="#222B59"/>
<path fill-rule="evenodd" clip-rule="evenodd" d="M15.5846 24.1114C21.9244 24.1114 27.0638 19.0995 27.0638 12.917C27.0638 6.73455 21.9244 1.72266 15.5846 1.72266C9.24486 1.72266 4.10547 6.73455 4.10547 12.917C4.10547 19.0995 9.24486 24.1114 15.5846 24.1114ZM8.52044 13.7783C9.00812 13.7783 9.40346 13.3928 9.40346 12.9172C9.40346 12.4416 9.00812 12.0561 8.52044 12.0561C8.03277 12.0561 7.63743 12.4416 7.63743 12.9172C7.63743 13.3928 8.03277 13.7783 8.52044 13.7783ZM16.4676 19.8062C16.4676 20.2818 16.0722 20.6673 15.5846 20.6673C15.0969 20.6673 14.7016 20.2818 14.7016 19.8062C14.7016 19.3306 15.0969 18.9451 15.5846 18.9451C16.0722 18.9451 16.4676 19.3306 16.4676 19.8062ZM22.6487 13.7783C23.1363 13.7783 23.5317 13.3928 23.5317 12.9172C23.5317 12.4416 23.1363 12.0561 22.6487 12.0561C22.161 12.0561 21.7657 12.4416 21.7657 12.9172C21.7657 13.3928 22.161 13.7783 22.6487 13.7783ZM14.7016 6.05013C14.7016 5.56245 15.0969 5.16712 15.5846 5.16712C16.0722 5.16712 16.4676 5.56245 16.4676 6.05013V12.0561H19.1385C19.6141 12.0561 19.9996 12.4416 19.9996 12.9172C19.9996 13.3928 19.6141 13.7783 19.1385 13.7783H15.5627C15.0871 13.7783 14.7016 13.3928 14.7016 12.9172C14.7016 12.9136 14.7016 12.9099 14.7016 12.9063C14.7016 12.9026 14.7016 12.8989 14.7016 12.8952V6.05013Z" fill="#222B59"/>
</svg>
