<svg id="Layer_1" data-name="Layer 1" xmlns="http://www.w3.org/2000/svg" viewBox="0 0 250 80"><defs><style>.cls-1,.cls-2{fill:#333;}.cls-1,.cls-3{fill-rule:evenodd;}.cls-3{fill:#3aaa35;}</style></defs><title>logo helix</title><polygon class="cls-1" points="96.008 0 96.008 80 103.999 80 103.999 43.683 113.697 43.683 113.697 80 121.688 80 121.688 0 113.697 0 113.697 37.924 103.999 37.924 103.999 0 96.008 0"/><polygon class="cls-1" points="129.691 0 129.691 80 155.143 79.986 155.105 73.145 137.693 73.145 137.655 43.411 154.914 43.477 154.865 37.763 137.655 37.763 137.693 6.879 155.105 6.879 155.143 0 129.691 0"/><polygon class="cls-1" points="163.129 0 163.129 80 183.746 80 183.746 74.265 170.008 74.265 170.008 0 163.129 0"/><rect class="cls-2" x="189.49107" width="8.00254" height="79.99959"/><polygon class="cls-1" points="233.734 80 222.504 35.678 233.734 0 225.731 0 218.754 22.045 211.798 0 203.806 0 214.36 35.245 203.806 80 211.798 80 218.078 50.904 225.731 80 233.734 80"/><path class="cls-3" d="M79.85547,78.82491A148.63589,148.63589,0,0,1,57.63616,77.484C19.31406,72.09,0,45.69219,0,32.0043c0-47.71786,79.99719-27.24562,79.99719,0,0,24.1218-54.82868,24.13516-60.04023.13331C12.72857-1.24837,68.397,12.704,60.8852,32.03135c-2.98176,7.66467-16.87734,5.893-22.91169.10627-6.61245-6.348.71413-12.047.71413-12.047s-9.03829,4.42891-3.82673,11.9137c6.57419,9.41671,25.89345,10.03825,28.80439,0,6.23081-21.52728-52.03209-35.49854-46.55367,0,4.62257,30.04716,62.88555,24.00432,62.88555,24.00432V0H0V80l79.99719-.00041Z"/><path class="cls-2" d="M244.95026.00021a4.92062,4.92062,0,0,1,5.04957,4.9232,4.94554,4.94554,0,0,1-4.98343,5.07153,5.02314,5.02314,0,0,1-5.15963-4.95331A5.03342,5.03342,0,0,1,244.9283.00021Zm-.05491.87209A4.032,4.032,0,0,0,240.96771,5.025,3.99366,3.99366,0,0,0,245.0441,9.1037a3.92375,3.92375,0,0,0,3.8447-4.13354A3.9993,3.9993,0,0,0,244.9283.8723Zm-.825,6.85642-.97933.01905-.03818-5.20638a10.53684,10.53684,0,0,1,1.82064-.19251,2.496,2.496,0,0,1,1.6447.39075,1.35041,1.35041,0,0,1,.5281,1.11385,1.321,1.321,0,0,1-.98466,1.22674v.07145a1.57206,1.57206,0,0,1,.85263,1.2597,4.00383,4.00383,0,0,0,.42328,1.28157l-1.00088.00815a3.8977,3.8977,0,0,1-.45131-1.3393c-.132-.58575-.48384-.84448-1.19912-.8335l-.63775.01664Zm-.03328-2.932.67144-.011c.693-.022,1.34213-.22262,1.34213-.82218,0-.509-.35789-.86361-1.2596-.86361a2.91681,2.91681,0,0,0-.754.08253Z"/></svg>